<svg xmlns="http://www.w3.org/2000/svg" version="1.1" xmlns:xlink="http://www.w3.org/1999/xlink" width="1000" height="1000"><g clip-path="url(#SvgjsClipPath1030)"><rect width="1000" height="1000" fill="#ffffff"></rect><g transform="matrix(1.125,0,0,1.125,50,50)"><svg xmlns="http://www.w3.org/2000/svg" version="1.1" xmlns:xlink="http://www.w3.org/1999/xlink" width="800" height="800"><svg id="Layer_1" data-name="Layer 1" xmlns="http://www.w3.org/2000/svg" viewBox="0 0 800 800"><defs><style>.cls-1{fill:#bb3e00;}.cls-2{fill:#657c6a;}.cls-3{fill:#fff;}.cls-4{fill:#f7ad45;}</style><clipPath id="SvgjsClipPath1030"><rect width="1000" height="1000" x="0" y="0" rx="350" ry="350"></rect></clipPath></defs><path class="cls-1" d="M168.13,392.52c0,.37,0,.7,0,1l-2.64-6.8C168.33,387.34,168.19,389.55,168.13,392.52Z"></path><path class="cls-1" d="M180.21,383.85c.19-2.87,3.66-4.46,6.36-6,2.45,2,5.65,4.09,5.38,7s-3.76,5.74-6.37,5.55S180,386.72,180.21,383.85Z"></path><path class="cls-1" d="M180.14,424.9l-5.25-13.6c.27-.26.6-.53.93-.79,8.94-7.06,8.77-7.33,16.26,1.52,1.19,1.38,2.78,2.57,3.17,4.58-.59,2-2.34,2.91-3.73,4.09C185.12,426.15,183.44,427.6,180.14,424.9Z"></path><path class="cls-1" d="M201.85,449.12l1.19.09a140.92,140.92,0,0,0-4.92,22.44l-7.75-20.16C193.63,448.78,197.2,447.14,201.85,449.12Z"></path><path class="cls-1" d="M204.69,434.6a8.21,8.21,0,0,1,3.33.79c-1.32,3.17-2.54,6.33-3.63,9.57h-.82c-4.26-.17-4.72-2.11-4.56-5.78C199.18,435,200.89,434.33,204.69,434.6Z"></path><path class="cls-1" d="M211.62,427.53c-.5,1-1,2-1.45,3a18.91,18.91,0,0,1-5-.23c-9.6-.63-9.6-.66-10.4,9.17l-.56,7.43c-4.15-3.2-6.63-6.87-9.43-10.1l-1.32-3.46a3.7,3.7,0,0,1,1-1c5.18-4.43,10.43-8.75,15.48-13.3,1.81-1.65,2.67-.93,4,.46C206.27,422.19,208.85,424.73,211.62,427.53Z"></path><path class="cls-1" d="M202.51,394.9c.36-3.76,1.26-5.91,5.45-4.62,4.19-.53,5.18,1.42,4.85,5.35s-1.49,5.18-5.55,4.85S202.12,398.86,202.51,394.9Z"></path><path class="cls-1" d="M179.28,402.13c-1.95,1.75-4,3.4-5.94,5.08l-2.6-6.7c1.12-1.12,1.28-3.37,1.61-7.69l.63-7.69c.59-.33,1.19-.66,1.81-.95,2.41,3.3,4.89,6.56,7.2,9.93,2,2.87,3.86,3.56,6.43.66,2.71-3.07,5.61-5.91,8.45-8.88.66.53,1.32,1.06,1.95,1.62-.3,3.66-.3,7.42-.93,11.05-.72,4.09.33,6,4.79,5.88,3.66-.1,7.35.52,11,.79.4.69.76,1.38,1.16,2.08-3.73,2.74-7.59,5.41-11.22,8.31-1.79,1.42-2.51.56-3.57-.72-3.4-4.06-6.86-8.09-10.29-12.15C185.06,397.11,185.06,397.11,179.28,402.13Z"></path><path class="cls-1" d="M215.51,411.7a33.09,33.09,0,0,1,3.27,3c-1.85,3-3.63,6-5.28,9.11-2.21-1.62-4.72-3.66-4.36-6.24C209.57,414.86,212.87,413.28,215.51,411.7Z"></path><path class="cls-1" d="M224.65,356.69c-1.71,2-3.66,4.26-6.53,5.21-1.22.43-6.34-5.94-5.64-7,1.68-2.41,3.73-4.72,6.76-5.41C220.36,349.3,224.82,355.07,224.65,356.69Z"></path><path class="cls-1" d="M161.69,295.64c-1.22.43-6.33-5.93-5.64-7,1.68-2.41,3.73-4.72,6.77-5.41,1.12-.23,5.57,5.54,5.41,7.16C166.54,292.41,164.56,294.69,161.69,295.64Z"></path><path class="cls-1" d="M174.53,313.46c0,4.82-2.87,4.49-6.1,3.9-5.09.49-3.93-3-4-6-.07-4.85,3-4,6.1-4C175.62,307.26,174.5,310.43,174.53,313.46Z"></path><path class="cls-1" d="M168.06,267c-.59-4.62,2.38-4.25,5.74-4.22,4.52,0,4.36,2.44,4.29,5.87-.06,4.52-2.34,4.46-5.84,4.42C167.67,273,167.4,270.53,168.06,267Z"></path><path class="cls-1" d="M179,320.59c-1.55-6,2.24-11.81-.66-17.32a30.46,30.46,0,0,1-10.2-.83c-.76,0-1.52-.1-2.28-.16-1.12.29-2.64.39-2.77-.79-.26-1.92,1.95-1.75,3-2.55a21.19,21.19,0,0,1,6.14-5.28c2.14-3.49,3.92-3.1,5.41.53l1.19,1.39a3.27,3.27,0,0,1,2,2.28c.36.46.76.92,1.12,1.38a3.25,3.25,0,0,1,2,2.31c1.78,2.08,3.56,4.19,5.35,6.27,2.6,1.62,2.73,3-.24,4.32A51.45,51.45,0,0,1,179,320.59Z"></path><path class="cls-1" d="M197.59,324c-2.34,2.35-4.28,5.74-7.16,5.22-2.64-.47-5.51-3.57-5.24-6.57a5.2,5.2,0,0,1,6.07-4.62C194.29,318.61,195.68,321.61,197.59,324Z"></path><path class="cls-1" d="M190.17,260c.2-2.87,3.66-4.49,6.37-6,2.44,2,5.64,4.09,5.38,7s-3.76,5.75-6.37,5.52S189.94,262.88,190.17,260Z"></path><path class="cls-1" d="M202.05,288.15c1.19,1.42,2.77,2.61,3.2,4.62-.63,2-2.38,2.91-3.76,4.1-8.88,7.58-8.71,7.39-16.34-.9-3.46-3.72-3.59-6,.63-9.3C194.76,279.58,194.59,279.34,202.05,288.15Z"></path><path class="cls-1" d="M223.4,305.48c-3.66,2.11-6.07,1.15-8.28,1-9.64-.6-9.64-.66-10.43,9.2l-.56,7.4c-4.69-3.57-7.23-7.76-10.5-11.26-1.25-1.38-.42-2.34.7-3.3,5.18-4.38,10.43-8.74,15.47-13.26,1.82-1.68,2.68-1,4,.46C216.73,298.91,219.87,301.91,223.4,305.48Z"></path><path class="cls-1" d="M219,316.24c.63,4.68-1.78,5-5.48,4.85-4.25-.14-4.72-2.08-4.55-5.75.16-4.19,1.88-4.88,5.67-4.58C218.75,311.05,220.23,312.54,219,316.24Z"></path><path class="cls-1" d="M222.94,324.22a1.86,1.86,0,0,1-2.05,1.68A2.75,2.75,0,0,1,222.94,324.22Z"></path><path class="cls-1" d="M212.48,271c.36-3.73,1.25-5.91,5.44-4.59,4.19-.56,5.18,1.42,4.85,5.35s-1.45,5.18-5.54,4.82C213.3,276.28,212.08,275,212.48,271Z"></path><path class="cls-1" d="M173.24,288c-2.54-3.5-5.24-6.9-8.08-10.56,2.31-1.06,4.75-.23,7.13-.07,9.37.66,9.33.7,10-8.38l.62-7.69c.6-.33,1.19-.66,1.82-1,2.41,3.34,4.88,6.57,7.19,10,2,2.87,3.86,3.56,6.44.66,2.7-3.07,5.61-5.94,8.44-8.88.66.53,1.32,1.06,1.95,1.59-.3,3.69-.3,7.42-.92,11.05-.73,4.13.33,6,4.78,5.91a103.53,103.53,0,0,1,11.06.79c.39.66.79,1.35,1.15,2.05-3.73,2.77-7.59,5.44-11.22,8.34-1.78,1.42-2.51.57-3.56-.72-3.4-4.06-6.87-8.09-10.3-12.14-4.75-5.65-4.75-5.65-10.52-.63-3.86,3.36-7.86,6.56-11.62,10C175.82,290,174.69,290,173.24,288Z"></path><path class="cls-1" d="M225.48,287.86c2.44,2.08,4.72,4,5.61,7,.36,1.29-5.88,6.43-6.87,5.71-2.41-1.72-5.54-3.9-5.11-6.8C219.54,291,222.84,289.41,225.48,287.86Z"></path><path class="cls-1" d="M130.51,286.44l2,1.58c-.3,3.6-.33,7.23-.89,10.76l-3.7-9.64C128.8,288.25,129.65,287.33,130.51,286.44Z"></path><path class="cls-1" d="M147.11,329.86a9.51,9.51,0,0,1-3.07,1.19l-2.67-6.93C143.15,325.94,145.06,327.82,147.11,329.86Z"></path><path class="cls-1" d="M136.19,295.41c.36-3.72,1.22-5.9,5.44-4.58,4.16-.56,5.15,1.42,4.85,5.31s-1.48,5.21-5.54,4.85S135.79,299.41,136.19,295.41Z"></path><path class="cls-1" d="M148.56,307.82c-3.5,2.57-7.06,5.05-10.49,7.76l-4.16-10.83a9.69,9.69,0,0,0,2.41.23,106.19,106.19,0,0,1,11.09.79C147.77,306.43,148.16,307.13,148.56,307.82Z"></path><path class="cls-1" d="M150.05,288.42a2.73,2.73,0,0,1,.16-.73,4.31,4.31,0,0,1,1,3.93A4.81,4.81,0,0,1,150.05,288.42Z"></path><path class="cls-1" d="M142.82,318.12c.43-2.71,3.73-4.33,6.37-5.91,2.44,2.11,4.72,4.06,5.61,7,.36,1.29-5.91,6.44-6.9,5.71C145.53,323.2,142.39,321,142.82,318.12Z"></path><path class="cls-1" d="M150.87,293.3a8.83,8.83,0,0,0,.33-1.68,16.49,16.49,0,0,0,1.82,1.85c6.66,5.64,9.23,12.6,7,21.21a10.1,10.1,0,0,0-.1,1.13c-.07.29-.13.59-.2.85A11.71,11.71,0,0,0,158,315C151.17,309.24,148.53,302.05,150.87,293.3Z"></path><path class="cls-1" d="M159.68,316.66a3.87,3.87,0,0,1,.83,4C159.65,319.8,159.38,318.48,159.68,316.66Z"></path><path class="cls-1" d="M160.51,320.62c.82.8,2.21,1.13,4.22,1,9.21-.73,16.63,2.21,21.32,10.63,2.5,4.42,5.11,4.25,8.71.75,5-4.78,9.63-10.88,17.06-7.68,1.78.13,2.57.19,3.3.23,2.74.2,4.55.46,5.77.39a6.6,6.6,0,0,0-.4,3.14c.57,9.17-2.14,16.66-10.55,21.45-2.25,1.32-3.34,2.7-3.47,4.19s.92,3.33,3,5.05c6.67,5.64,9.24,12.6,7,21.21-.1.37,0,.73-.1,1.12-1,4.13.47,6.11,4.85,5.78,6.11-.5,11.42.66,15.68,3.93a141.84,141.84,0,0,0-15.74,19.43c-4.39-5.11-5.81-11.25-3.86-18.44,1.48-5.58-1.39-7.16-6.24-6.74-8.54.76-15-2.4-19.3-9.89-.17-.33-.5-.53-.69-.86a8.92,8.92,0,0,0-1.82-2.25,3.39,3.39,0,0,0-4.55-.26,7.73,7.73,0,0,0-1.95,1.81c-5.15,6.21-11.32,9-18.78,8.15L147,338.81c.89-6.44,4.36-11,10.06-14.62A8.1,8.1,0,0,0,160.51,320.62Z"></path><path class="cls-1" d="M99.16,214.54l-2.67-7c3.1-1.19,6.17-2.25,9.31-3.14A18.86,18.86,0,0,1,99.16,214.54Z"></path><path class="cls-1" d="M104.38,228l-3.67-9.53a9.42,9.42,0,0,1,4.62-2.81c1.13-.23,5.58,5.55,5.42,7.16C109.1,224.8,107.18,227,104.38,228Z"></path><path class="cls-1" d="M112.86,250.08,109,239.91a15.25,15.25,0,0,1,4.13-.16c5-.07,3.93,3.1,4,6.13C117.08,249.71,115.27,250.31,112.86,250.08Z"></path><path class="cls-1" d="M110.48,203.15c3.4-.89,6.77-1.61,10.17-2.17v.09c-.1,4.53-2.38,4.46-5.88,4.43C112.07,205.43,110.88,204.57,110.48,203.15Z"></path><path class="cls-1" d="M110.68,234.9l-2.24-.2a5.41,5.41,0,0,1-1.42.2l-.89-2.35c.66-.56,1.84-.69,2.57-1.18a19.74,19.74,0,0,1,6.1-5.25c2.15-3.53,3.93-3.14,5.42.49.43.47.79.93,1.18,1.39a3.26,3.26,0,0,1,2,2.28c.39.46.76.92,1.12,1.38a3.21,3.21,0,0,1,2,2.31l5.34,6.27c2.61,1.62,2.74,3.07-.23,4.33A50.73,50.73,0,0,1,121.54,253c-1.55-6,2.24-11.81-.66-17.32A30.42,30.42,0,0,1,110.68,234.9Z"></path><path class="cls-1" d="M133.78,250.47c3,.56,4.42,3.57,6.33,6-2.34,2.35-4.29,5.75-7.16,5.22-2.64-.46-5.51-3.57-5.24-6.57A5.2,5.2,0,0,1,133.78,250.47Z"></path><path class="cls-1" d="M144,229.29c-8.88,7.59-8.71,7.39-16.34-.89-3.46-3.73-3.59-6,.63-9.31,9-7.06,8.81-7.32,16.27,1.52,1.19,1.38,2.77,2.57,3.2,4.59C147.14,227.18,145.39,228.1,144,229.29Z"></path><path class="cls-1" d="M165.92,237.9c-3.67,2.14-6.07,1.15-8.28,1-9.64-.62-9.61-.69-10.4,9.18l-.59,7.39c-4.66-3.57-7.23-7.76-10.5-11.26-1.25-1.38-.43-2.34.73-3.26,5.15-4.42,10.39-8.75,15.44-13.3,1.82-1.68,2.68-1,4,.46C159.28,231.33,162.39,234.37,165.92,237.9Z"></path><path class="cls-1" d="M161.53,248.66c.63,4.68-1.78,5-5.45,4.85-4.29-.13-4.75-2.08-4.58-5.74.16-4.2,1.88-4.89,5.67-4.59C161.26,243.48,162.75,245,161.53,248.66Z"></path><path class="cls-1" d="M155,203.45a10.58,10.58,0,0,1,.72-3.3c3.2.4,6.4.89,9.54,1.52a9.21,9.21,0,0,1,0,2.54c-.26,3.83-1.45,5.18-5.54,4.82C155.82,208.7,154.63,207.44,155,203.45Z"></path><path class="cls-1" d="M115.76,220.41c-2.54-3.5-5.24-6.86-8.08-10.56,2.31-1,4.75-.23,7.12-.06,9.38.66,9.38.69,10.07-8.39l.06-1.05c2.48-.36,4.92-.6,7.36-.76a115.74,115.74,0,0,1,12.34-.26c2.15.06,4.29.19,6.44.36a63.55,63.55,0,0,1-.69,7.42c-.7,4.13.33,6,4.78,5.91a102.43,102.43,0,0,1,11.05.79c.4.69.8,1.39,1.16,2.08-3.73,2.74-7.59,5.41-11.22,8.32-1.75,1.41-2.51.56-3.56-.73-3.4-4.06-6.87-8.08-10.3-12.14-4.75-5.65-4.72-5.65-10.52-.63-3.83,3.37-7.86,6.57-11.59,10C118.34,222.46,117.21,222.42,115.76,220.41Z"></path><path class="cls-1" d="M166.74,233c-2.37-1.75-5.54-3.92-5.11-6.83.43-2.7,3.73-4.32,6.37-5.87,2.44,2.08,4.75,4,5.61,7C174,228.53,167.73,233.68,166.74,233Z"></path><path class="cls-1" d="M222.51,231.86c.33-.43.62-.86,1-1.29,2.51,2.22,4.92,4.52,7.23,6.93a8.77,8.77,0,0,1-2.54,1.32C226.93,239.25,221.81,232.88,222.51,231.86Z"></path><path class="cls-1" d="M232.6,242.12a10.93,10.93,0,0,1,1.13-1.32c1.58,1.79,3.13,3.63,4.65,5.55a30.07,30.07,0,0,1-3.76-.73c-.76-.07-1.52-.1-2.25-.2-1.15.33-2.67.43-2.8-.79C229.31,242.75,231.52,242.92,232.6,242.12Z"></path><path class="cls-1" d="M237,250.5c5.05-.06,3.92,3.11,4,6.14,0,4.79-2.87,4.49-6.11,3.9-5.08.49-3.92-3-4-6C230.86,249.68,233.89,250.54,237,250.5Z"></path><path class="cls-1" d="M245.47,263.77a18.52,18.52,0,0,1,0-7.49c1.13,1.71,2.18,3.46,3.2,5.28C247.65,262.32,246.6,263.08,245.47,263.77Z"></path><path class="cls-1" d="M253.06,269.94a6.31,6.31,0,0,1-1.28-2.64C252.21,268.16,252.63,269.08,253.06,269.94Z"></path><path class="cls-1" d="M276,328.54c-7.86.3-13.86-2.9-17.92-10-.17-.33-.53-.56-.69-.89a9.63,9.63,0,0,0-1.82-2.24,3.39,3.39,0,0,0-4.55-.26,8.5,8.5,0,0,0-2,1.84c-6,7.26-13.46,9.84-22.6,7.4-.2,0-.4,0-.6,0a7.11,7.11,0,0,0-2.93-.13,31.32,31.32,0,0,0,.13-5.71c-.17-8.64,3.46-14.38,10.29-18.71,4.29-2.74,5.18-5.67,1-9.24-6.86-5.71-9.47-12.9-7.13-21.64,1.49-5.61-1.38-7.16-6.23-6.73-8.55.72-15-2.41-19.31-9.9-.16-.33-.49-.56-.69-.89a9.48,9.48,0,0,0-1.81-2.25,3.4,3.4,0,0,0-4.56-.26,8.13,8.13,0,0,0-1.94,1.85c-6,7.25-13.47,9.83-22.61,7.39-.2,0-.39,0-.56,0-4-.89-5.67.7-5.41,4.69.56,9.17-2.15,16.66-10.56,21.45-1.88,1.09-2.94,2.24-3.3,3.46-1.15-1.05-3.1-1.35-5.54-1.12-8.55.73-15-2.41-19.31-9.9-.19-.33-.52-.56-.72-.89a8.38,8.38,0,0,0-1.82-2.24,3.49,3.49,0,0,0-1.22-.76l-7.13-18.51c5.91,1,10.7,4.25,14.13,10.36,2.47,4.42,5.08,4.25,8.71.76,4.92-4.79,9.6-10.89,17-7.69,1.81.13,2.57.2,3.33.26,8.15.53,8.12,1.78,7.92-7-.17-8.64,3.46-14.38,10.33-18.71,4.25-2.73,5.14-5.67.92-9.2-6.53-5.48-9.21-12.24-7.42-20.46a124.61,124.61,0,0,1,50.41,24.95c-2.14,1.25-3.2,2.64-3.33,4.09-.13,1.61.93,3.33,3,5.05,6.67,5.64,9.27,12.6,7,21.18-.09.36,0,.76-.09,1.15-1,4.13.46,6.11,4.85,5.78,9.2-.73,16.63,2.21,21.31,10.59,1.35,2.44,2.77,3.5,4.32,3.37,0,0,0,.06.07.1Z"></path><path class="cls-1" d="M220.86,377.61c0-4.85,3-4,6.14-4,5-.06,3.92,3.11,4,6.14,0,4.82-2.88,4.49-6.11,3.9C219.77,384.11,220.92,380.65,220.86,377.61Z"></path><path class="cls-1" d="M224.45,333.26c-.56-4.58,2.41-4.26,5.75-4.22,4.55,0,4.38,2.44,4.32,5.87-.07,4.52-2.34,4.46-5.84,4.42C224.06,339.23,223.83,336.79,224.45,333.26Z"></path><path class="cls-1" d="M245.54,378.4a52.23,52.23,0,0,1-10.1,8.45c-1.55-6,2.25-11.81-.66-17.32a31.51,31.51,0,0,1-10.23-.8l-2.24-.19c-1.12.29-2.64.39-2.77-.8-.27-1.91,1.94-1.75,3-2.54a21.19,21.19,0,0,1,6.14-5.28c2.15-3.49,3.93-3.1,5.41.53l1.19,1.39a3.32,3.32,0,0,1,2,2.27c.37.47.73.93,1.13,1.39a3.34,3.34,0,0,1,2,2.31l5.34,6.27C248.38,375.7,248.51,377.12,245.54,378.4Z"></path><path class="cls-1" d="M246.56,326.27c.23-2.87,3.67-4.49,6.4-6,2.45,2,5.65,4.09,5.38,7s-3.76,5.74-6.37,5.51S246.36,329.14,246.56,326.27Z"></path><path class="cls-1" d="M257.88,363.12c-8.84,7.59-8.68,7.4-16.3-.89-3.46-3.73-3.63-6,.63-9.3,8.94-7.06,8.77-7.33,16.26,1.48,1.19,1.42,2.78,2.61,3.17,4.62C261.05,361,259.3,361.94,257.88,363.12Z"></path><path class="cls-1" d="M270.22,362c.89,1,1.78,1.91,2.74,2.87a135.64,135.64,0,0,0-22,14.22c-.3-.33-.59-.69-.89-1-1.29-1.38-.43-2.34.69-3.3,5.18-4.39,10.43-8.74,15.48-13.26C268,359.82,268.9,360.55,270.22,362Z"></path><path class="cls-1" d="M274.35,332.7a5.31,5.31,0,0,1,3.43.4l1.48,3.86c0,.33,0,.69-.06,1.09-.27,3.79-1.49,5.18-5.55,4.81s-5.14-1.58-4.75-5.57C269.26,333.56,270.16,331.41,274.35,332.7Z"></path><path class="cls-1" d="M269.07,346.86a103.16,103.16,0,0,1,11.05.79c.4.69.76,1.38,1.16,2.08-3.73,2.74-7.59,5.41-11.22,8.31-1.79,1.42-2.51.56-3.57-.72-3.4-4.06-6.86-8.09-10.29-12.15-4.75-5.64-4.75-5.64-10.53-.62-3.86,3.36-7.85,6.56-11.61,10-1.82,1.71-2.94,1.68-4.39-.33-2.54-3.5-5.25-6.87-8.09-10.56,2.31-1.06,4.76-.23,7.13-.07,9.34.66,9.34.7,10-8.38l.63-7.69c.59-.33,1.19-.66,1.81-.95,2.41,3.3,4.89,6.53,7.2,9.93,2,2.87,3.86,3.56,6.43.66,2.71-3.07,5.61-5.94,8.45-8.88l1.95,1.59c-.3,3.69-.33,7.42-.93,11.05C263.56,345.07,264.58,347,269.07,346.86Z"></path><path class="cls-1" d="M286.39,358.74c-3.4,1.32-6.7,2.77-9.93,4.38a4.24,4.24,0,0,1-.93-3.13c.43-2.71,3.73-4.32,6.37-5.87A22.47,22.47,0,0,1,286.39,358.74Z"></path><path class="cls-2" d="M222.44,534.81l36.8,95.63a124.09,124.09,0,0,0,160.37,71.23h0L348.89,517.89a29.61,29.61,0,0,1,17-38.28l140.44-54.05a124.09,124.09,0,0,0,71.24-160.37l-36.8-95.63A124.09,124.09,0,0,0,380.4,98.33h0l70.72,183.78a29.61,29.61,0,0,1-17,38.28L293.68,374.44A124.09,124.09,0,0,0,222.44,534.81Z"></path><path class="cls-3" d="M132.29,199.59c.76,1,1.49,2,2.18,3.1,2,2.87,3.86,3.57,6.44.66,1.22-1.38,2.47-2.7,3.72-4A115.74,115.74,0,0,0,132.29,199.59Z"></path><path class="cls-3" d="M150.21,287.69a2.73,2.73,0,0,0-.16.73,4.81,4.81,0,0,0,1.15,3.2A4.31,4.31,0,0,0,150.21,287.69Zm9.47,29c-.3,1.82,0,3.14.83,4A3.87,3.87,0,0,0,159.68,316.66Zm61.21,9.24a1.86,1.86,0,0,0,2.05-1.68A2.75,2.75,0,0,0,220.89,325.9Z"></path><path class="cls-3" d="M220.89,325.9a1.86,1.86,0,0,0,2.05-1.68A2.75,2.75,0,0,0,220.89,325.9Z"></path><path class="cls-3" d="M159.68,316.66c-.3,1.82,0,3.14.83,4A3.87,3.87,0,0,0,159.68,316.66Zm-9.47-29a2.73,2.73,0,0,0-.16.73,4.81,4.81,0,0,0,1.15,3.2A4.31,4.31,0,0,0,150.21,287.69ZM131.6,298.78c0,.1,0,.2,0,.3-.56,3.23-.07,5.05,2.34,5.67Z"></path><path class="cls-4" d="M639.86,477.39c-2,1.13-3,2.31-3.34,3.57a7.3,7.3,0,0,0-2.6-3.53c-6.87-5.74-9.51-12.94-7.16-21.68,1.52-5.61-1.39-7.16-6.21-6.73-8.54.72-15-2.41-19.3-9.9-.2-.33-.53-.56-.73-.89a8.59,8.59,0,0,0-1.81-2.25,6.25,6.25,0,0,0-.66-.43,2.87,2.87,0,0,0,.4-.19,12.53,12.53,0,0,0,2.37-1.85c4.95-4.79,9.64-10.89,17.06-7.72,1.78.13,2.57.23,3.3.26,8.18.53,8.12,1.78,8-7a20.73,20.73,0,0,1,3.07-11.84l18.18,47.21c0,.47,0,1,0,1.56C651,465.12,648.24,472.61,639.86,477.39Z"></path><path class="cls-4" d="M629.69,400.64c-2.27-1.68-4.91-3.73-4.52-6.37a5.17,5.17,0,0,1,1.19-2.31Z"></path><path class="cls-4" d="M620.39,376.52c-1.62-.76-2.11-2.18-1.85-4.85Z"></path><path class="cls-4" d="M614,359.76a20,20,0,0,1-6.23-6.93c-.17-.33-.5-.56-.7-.89-2.47-4.06-5.27-4.39-8.31-.69a27.34,27.34,0,0,1-2.81,3,142.66,142.66,0,0,0,6-25.83Z"></path><path class="cls-4" d="M661.24,482.64a3.53,3.53,0,0,1-1.68-1.48c-2.54-3.5-5.25-6.9-8.09-10.56a8.7,8.7,0,0,1,5-.33Z"></path><path class="cls-4" d="M660.84,506.63c0,4.78-2.87,4.49-6.1,3.89-5,.5-3.93-3-4-6-.07-4.85,3-4,6.14-4C661.93,500.43,660.81,503.59,660.84,506.63Z"></path><path class="cls-4" d="M654.54,483.6c-1.68,2-3.66,4.25-6.53,5.21-1.22.43-6.34-5.94-5.61-7,1.68-2.41,3.69-4.72,6.73-5.38C650.25,476.21,654.71,482,654.54,483.6Z"></path><path class="cls-4" d="M608,361.51c-.26,2.8-3.76,5.74-6.37,5.51s-5.61-3.63-5.38-6.47,3.67-4.49,6.37-6C605.05,356.49,608.25,358.6,608,361.51Z"></path><path class="cls-4" d="M625.07,416.74c.63,4.69-1.78,5-5.47,4.89-4.26-.17-4.72-2.11-4.56-5.74.17-4.19,1.88-4.89,5.68-4.62C624.81,411.56,626.3,413.05,625.07,416.74Z"></path><path class="cls-4" d="M629.46,406c-3.66,2.11-6.07,1.12-8.28,1-9.63-.59-9.63-.66-10.43,9.17l-.56,7.43c-4.68-3.6-7.22-7.76-10.49-11.29-1.25-1.35-.43-2.34.69-3.26,5.18-4.43,10.43-8.75,15.48-13.3,1.81-1.65,2.67-.93,4,.49C622.8,399.42,625.93,402.46,629.46,406Z"></path><path class="cls-4" d="M611.31,393.32c-.62,1.94-2.37,2.87-3.76,4.09-8.87,7.55-8.71,7.39-16.33-.89-3.47-3.76-3.63-6,.63-9.34,8.94-7.06,8.81-7.33,16.26,1.52C609.3,390.08,610.89,391.27,611.31,393.32Z"></path><path class="cls-4" d="M624.94,388.33q-2.67,1.94-5.24,4c-1.79,1.42-2.51.56-3.57-.69-3.4-4.09-6.86-8.08-10.29-12.14-4.75-5.68-4.75-5.68-10.53-.63-3.86,3.33-7.85,6.53-11.61,10-1.82,1.68-2.94,1.68-4.39-.33a1.83,1.83,0,0,1-.13-.16c2.3-3.4,4.42-6.9,6.4-10.5,1.68-.49,2.17-1.81,2.5-4.81,1.62-3.2,3.14-6.5,4.46-9.84,1.85,2.51,3.73,5,5.48,7.56,2,2.9,3.86,3.56,6.43.66,2.71-3.07,5.61-5.91,8.45-8.84.66.52,1.32,1,2,1.58-.3,3.7-.3,7.42-.93,11.05-.72,4.1.33,6,4.79,5.88a29.09,29.09,0,0,1,3.49.13Z"></path><path class="cls-4" d="M603.66,424.53c-2.34,2.34-4.29,5.74-7.16,5.25-2.64-.46-5.51-3.6-5.25-6.57a5.2,5.2,0,0,1,6.07-4.65C600.36,419.15,601.71,422.12,603.66,424.53Z"></path><path class="cls-4" d="M671.47,509.14a43.13,43.13,0,0,1-6.17,4.62c-1.55-6,2.27-11.82-.6-17.33a30.39,30.39,0,0,1-10.23-.82l-2.27-.17c-1.09.3-2.61.43-2.77-.82-.23-1.88,1.94-1.72,3.07-2.51a19.84,19.84,0,0,1,6.1-5.28c1.25-2,2.38-2.74,3.4-2.31Z"></path><path class="cls-4" d="M595.18,412.69a51.83,51.83,0,0,1-10.1,8.44c-1.55-6,2.25-11.84-.66-17.35a29.39,29.39,0,0,1-10.19-.8l-2.28-.16c-1.12.3-2.64.4-2.77-.83a1.2,1.2,0,0,1,0-.36c.43-.46.83-.92,1.19-1.38a7.46,7.46,0,0,0,1.88-.76,20,20,0,0,1,6.14-5.28c2.15-3.53,3.93-3.1,5.41.53.4.42.79.92,1.19,1.35a3.23,3.23,0,0,1,2,2.28c.37.49.76.92,1.12,1.41a3.26,3.26,0,0,1,2,2.28c1.79,2.11,3.57,4.19,5.35,6.3C598,410,598.15,411.4,595.18,412.69Z"></path><path class="cls-4" d="M577.69,455.48c-.07,4.52-2.34,4.46-5.84,4.43-4.62-.1-4.85-2.55-4.22-6.08-.56-4.58,2.4-4.25,5.74-4.22C577.92,449.64,577.76,452.05,577.69,455.48Z"></path><path class="cls-4" d="M601.48,447.8c-.26,2.83-3.76,5.74-6.33,5.51s-5.61-3.6-5.42-6.47,3.67-4.49,6.41-6C598.58,442.81,601.75,444.92,601.48,447.8Z"></path><path class="cls-4" d="M624.45,470.3c-3.76,2.74-7.59,5.41-11.22,8.31-1.78,1.42-2.51.57-3.6-.72-3.36-4.06-6.86-8.09-10.26-12.14-4.75-5.65-4.75-5.65-10.53-.63-3.86,3.36-7.85,6.57-11.61,10-1.82,1.72-2.94,1.68-4.39-.33-2.54-3.5-5.28-6.86-8.12-10.56,2.35-1.06,4.79-.23,7.13-.07,9.37.66,9.37.7,10.06-8.38l.6-7.68c.62-.33,1.22-.66,1.85-1,2.4,3.3,4.88,6.53,7.19,9.93,2,2.87,3.83,3.56,6.43.66,2.71-3.07,5.61-5.94,8.42-8.88l2,1.59c-.3,3.69-.33,7.42-.93,11-.72,4.13.3,6,4.76,5.91a103.16,103.16,0,0,1,11.08.79C623.66,468.91,624.05,469.61,624.45,470.3Z"></path><path class="cls-4" d="M514.07,441.06a6,6,0,0,1-1,2l-.53-1.35C513.05,441.49,513.54,441.29,514.07,441.06Z"></path><path class="cls-4" d="M622.37,458.62c-.3,3.79-1.49,5.18-5.55,4.82s-5.14-1.59-4.75-5.58c.37-3.73,1.22-5.87,5.45-4.59C621.68,452.71,622.67,454.69,622.37,458.62Z"></path><path class="cls-4" d="M676.55,522.37c-2.57-.56-5.31-3.63-5-6.53a5.46,5.46,0,0,1,1.39-3Z"></path><path class="cls-4" d="M695.19,570.81c-.72.53-1.45,1.09-2.14,1.65-1.75,1.42-2.51.56-3.57-.73-3.36-4.06-6.86-8.05-10.26-12.11-4.78-5.67-4.75-5.67-10.52-.62-3.9,3.33-7.86,6.53-11.62,10-1.81,1.68-2.94,1.65-4.42-.33-2.51-3.53-5.25-6.9-8.08-10.56,2.34-1.09,4.78-.23,7.12-.1,9.37.66,9.37.72,10.07-8.38l.59-7.69c.63-.3,1.22-.63,1.85-1,2.41,3.3,4.88,6.57,7.19,10,2,2.84,3.83,3.56,6.44.62,2.24-2.57,4.68-5,7.09-7.49l2.84,7.4c-.13,1.28-.3,2.6-.5,3.89-.66,3.89.27,5.81,4.26,5.91Z"></path><path class="cls-4" d="M604.81,479.6c-.59,1.95-2.34,2.91-3.76,4.1-8.84,7.59-8.68,7.39-16.3-.89-3.46-3.73-3.63-6,.63-9.31,8.94-7.06,8.78-7.33,16.27,1.48C602.83,476.4,604.42,477.59,604.81,479.6Z"></path><path class="cls-4" d="M623,492.31c-3.67,2.11-6.08,1.15-8.32,1-9.6-.63-9.6-.69-10.39,9.17l-.6,7.4c-4.65-3.57-7.22-7.76-10.46-11.26-1.28-1.38-.43-2.34.69-3.26,5.19-4.42,10.43-8.75,15.48-13.3,1.82-1.68,2.67-1,4,.46C616.33,485.74,619.46,488.78,623,492.31Z"></path><path class="cls-4" d="M618.61,503.07c.59,4.68-1.82,5-5.48,4.85-4.26-.14-4.72-2.08-4.55-5.75.16-4.19,1.88-4.88,5.67-4.58C618.34,497.88,619.79,499.37,618.61,503.07Z"></path><path class="cls-4" d="M630.65,481.65c.4,1.29-5.87,6.43-6.86,5.71-2.38-1.72-5.51-3.89-5.08-6.8.42-2.7,3.72-4.32,6.36-5.87C627.52,476.77,629.79,478.71,630.65,481.65Z"></path><path class="cls-4" d="M588.68,499a51.52,51.52,0,0,1-10.1,8.45c-1.55-6,2.28-11.81-.63-17.32a30.56,30.56,0,0,1-10.22-.79l-2.25-.2c-1.12.29-2.64.39-2.77-.79-.26-1.92,1.91-1.75,3-2.55a21.11,21.11,0,0,1,6.1-5.27c2.18-3.5,4-3.11,5.44.52l1.19,1.39a3.21,3.21,0,0,1,2,2.28c.4.46.76.92,1.16,1.38a3.34,3.34,0,0,1,2,2.31c1.78,2.08,3.56,4.19,5.34,6.27C591.55,496.27,591.65,497.69,588.68,499Z"></path><path class="cls-4" d="M597.19,510.85c-2.34,2.35-4.32,5.74-7.19,5.22-2.61-.47-5.51-3.57-5.22-6.57a5.2,5.2,0,0,1,6.08-4.62C593.89,505.44,595.24,508.44,597.19,510.85Z"></path><path class="cls-4" d="M574.13,500.29c0,4.82-2.91,4.49-6.11,3.9-5.08.49-4-3-4-6,0-4.85,3-4,6.14-4C575.22,494.09,574.06,497.26,574.13,500.29Z"></path><path class="cls-4" d="M567.82,477.26c-1.71,2-3.66,4.26-6.53,5.22-1.25.42-6.33-5.94-5.64-7,1.68-2.41,3.73-4.72,6.76-5.41C563.53,469.87,568,475.64,567.82,477.26Z"></path><path class="cls-4" d="M543.41,474.19c.39,1.29-5.91,6.4-6.87,5.71-2.41-1.75-5.51-3.93-5.11-6.8s3.73-4.32,6.37-5.9C540.24,469.31,542.52,471.26,543.41,474.19Z"></path><path class="cls-4" d="M668.53,592.85a50,50,0,0,1-9.24,7.85,4.1,4.1,0,0,1-1,0c-1.19-5.8,2.28-11.41-.49-16.73a30.35,30.35,0,0,1-10.23-.82l-2.28-.2c-1.09.3-2.61.43-2.77-.79-.23-1.91,2-1.75,3.07-2.51a20.45,20.45,0,0,1,6.1-5.28c2.18-3.53,4-3.13,5.45.5.36.46.79,1,1.19,1.38a3.36,3.36,0,0,1,2,2.28c.36.46.75,1,1.15,1.39a3.36,3.36,0,0,1,1.95,2.31l5.38,6.27C671.37,590.11,671.5,591.56,668.53,592.85Z"></path><path class="cls-4" d="M673.15,599.91c-2.44.27-4.88.5-7.32.63a4.93,4.93,0,0,1,4.85-1.82A5.29,5.29,0,0,1,673.15,599.91Z"></path><path class="cls-4" d="M657.54,549.36c-.06,4.52-2.34,4.42-5.87,4.39-4.59-.07-4.82-2.51-4.19-6-.56-4.62,2.38-4.26,5.74-4.26C657.77,543.49,657.61,545.93,657.54,549.36Z"></path><path class="cls-4" d="M681.33,541.67c-.26,2.81-3.76,5.71-6.33,5.51s-5.61-3.63-5.41-6.46,3.66-4.49,6.4-6C678.43,536.66,681.6,538.77,681.33,541.67Z"></path><path class="cls-4" d="M680.15,531.71c-2.41-3.7-5.12-3.86-8.09-.3-6,7.26-13.46,9.87-22.6,7.39-.17,0-.36,0-.56,0-3.93-.89-5.68.72-5.41,4.72.59,9.14-2.15,16.63-10.53,21.45-4.75,2.7-4.39,5.93-.53,9.2,6.67,5.68,9.24,12.64,7,21.22-.13.36,0,.76-.13,1.12a8.56,8.56,0,0,0-.3,2.61,124.16,124.16,0,0,1-23.49-6.24v-.63c-.17-8.64,3.46-14.35,10.29-18.71,4.26-2.7,5.18-5.64,1-9.2-6.87-5.74-9.51-12.9-7.16-21.65,1.51-5.61-1.36-7.19-6.21-6.76-8.54.76-15-2.38-19.3-9.87-.2-.33-.53-.56-.69-.89a7.57,7.57,0,0,0-2.77-2.87,9.39,9.39,0,0,0,3.72-2.47c4.95-4.79,9.64-10.89,17-7.69,1.82.13,2.57.19,3.33.26,2.74.17,4.56.43,5.74.36a1.86,1.86,0,0,0,2.08-1.68,34.09,34.09,0,0,0,.14-5.71c-.17-8.64,3.46-14.38,10.29-18.71,1.95-1.25,3.17-2.54,3.53-3.92a7.79,7.79,0,0,0,2.84,3.92c6.66,5.65,9.24,12.61,7,21.19-.1.36,0,.79-.13,1.15-1,4.13.49,6.11,4.88,5.78,9.24-.73,16.63,2.21,21.35,10.62,1.88,3.4,3.9,4.09,6.34,2.64Z"></path><path class="cls-4" d="M615.21,545.5c-.27,3.83-1.49,5.21-5.55,4.85s-5.14-1.62-4.75-5.58c.37-3.72,1.26-5.9,5.45-4.58C614.55,539.63,615.51,541.61,615.21,545.5Z"></path><path class="cls-4" d="M580.59,414c0,4.82-2.87,4.52-6.1,3.93-5.08.46-3.93-3-4-6,0-4.82,3-4,6.13-4C581.68,407.77,580.56,410.94,580.59,414Z"></path><path class="cls-4" d="M703.51,592.42l-.23.1a2,2,0,0,1,.1-.39Z"></path><path class="cls-4" d="M698.79,594.14c-3.43,1.15-6.93,2.18-10.39,3v-1.09c.19-4.19,1.91-4.88,5.7-4.62C696.91,591.63,698.49,592.42,698.79,594.14Z"></path><path class="cls-4" d="M654,594.14c0,4.82-2.9,4.52-6.1,3.92-5.09.47-4-3-4-6-.06-4.85,3-4,6.14-4C655,588,653.91,591.1,654,594.14Z"></path><path class="cls-4" d="M594.35,534.71c-.26,2.8-3.76,5.74-6.36,5.51s-5.61-3.63-5.42-6.47,3.67-4.48,6.41-6C591.42,529.69,594.62,531.81,594.35,534.71Z"></path><path class="cls-4" d="M701.4,586.91c-2.87,1.16-4.95.4-6.87.27-9.6-.6-9.6-.66-10.39,9.17l-.13,1.81c-1.78.37-3.57.7-5.32,1-2-2.24-3.69-4.55-5.64-6.63-1.25-1.35-.39-2.34.7-3.27,5.18-4.39,10.46-8.74,15.5-13.3,1.82-1.65,2.64-.92,4,.5,2.11,2.31,4.35,4.52,6.76,6.93Z"></path><path class="cls-4" d="M647.68,571.11c-1.72,2-3.67,4.25-6.57,5.24-1.22.4-6.33-5.94-5.61-7,1.68-2.38,3.7-4.69,6.77-5.38C643.39,563.71,647.84,569.52,647.68,571.11Z"></path><path class="cls-4" d="M684.67,573.48c-.63,1.95-2.38,2.87-3.76,4.09-8.85,7.56-8.68,7.39-16.3-.92-3.47-3.73-3.63-5.94.59-9.31,9-7.06,8.81-7.32,16.27,1.52C682.65,570.28,684.27,571.44,684.67,573.48Z"></path><path class="cls-4" d="M623.52,568.57c.37,1.28-5.87,6.4-6.86,5.7-2.41-1.75-5.54-3.92-5.11-6.79s3.72-4.33,6.36-5.91C620.36,563.68,622.63,565.63,623.52,568.57Z"></path><path class="cls-4" d="M594.55,435.55c-.13.07-.26.1-.39.17a9.71,9.71,0,0,0-1.95,1.85c-6,7.26-13.43,9.83-22.6,7.39-.17,0-.37,0-.57,0-3.92-.89-5.64.7-5.41,4.69.6,9.17-2.11,16.66-10.52,21.45a6.76,6.76,0,0,0-3.34,3.46,2.08,2.08,0,0,0-.13.73,4.62,4.62,0,0,0,1.16,3.2,14.12,14.12,0,0,0,1.81,1.85c6.67,5.64,9.24,12.6,7,21.21-.13.37,0,.73-.13,1.13s-.1.59-.16.85c-.3,1.82,0,3.14.82,4s2.21,1.13,4.23,1c9.2-.72,16.59,2.21,21.31,10.63a7.08,7.08,0,0,0,2.68,3,6.75,6.75,0,0,0-3.24,2.44c-6,7.26-13.46,9.86-22.6,7.42a4.13,4.13,0,0,0-.56-.06c-4-.86-5.68.72-5.41,4.71a28.07,28.07,0,0,1-.76,9.05,124.91,124.91,0,0,1-12.61-24.39l-7.72-20v0c0-.89,0-2,0-3.33-.17-8.64,3.5-14.35,10.29-18.71,2.25-1.42,3.57-2.9,3.7-4.52.1-1.45-.76-3-2.74-4.68-6.86-5.75-9.5-12.91-7.16-21.65,1.52-5.61-1.39-7.19-6.2-6.76-5.18.46-9.61-.5-13.2-3a139.54,139.54,0,0,0,46.23-33.69,20.24,20.24,0,0,1-.27,10.36c-.1.37,0,.76-.1,1.13-1,4.15.47,6.1,4.85,5.77,9.21-.69,16.63,2.21,21.32,10.66a9.67,9.67,0,0,0,1.78,2.34A3.76,3.76,0,0,0,594.55,435.55Z"></path><path class="cls-4" d="M617.29,557.18c-3.73,2.77-7.59,5.41-11.22,8.32-1.78,1.42-2.51.56-3.57-.7-3.39-4.09-6.89-8.08-10.29-12.14-4.75-5.68-4.75-5.68-10.53-.63-3.86,3.34-7.85,6.54-11.61,10a7.38,7.38,0,0,1-.63.53,121.85,121.85,0,0,1-10.1-11.91c1.79-.23,3.6.3,5.38.4,9.34.66,9.34.72,10-8.38l.63-7.66c.59-.33,1.19-.66,1.82-1,2.4,3.3,4.88,6.57,7.19,9.93,2,2.91,3.86,3.57,6.43.66,2.71-3.07,5.61-5.9,8.45-8.84l2,1.58c-.3,3.7-.33,7.43-.93,11.06-.72,4.09.3,6,4.79,5.87,3.66-.1,7.36.53,11,.83C616.53,555.83,616.89,556.52,617.29,557.18Z"></path><path class="cls-4" d="M597.65,566.52c-.59,2-2.34,2.87-3.76,4.09-4.91,4.19-7.06,6-9.3,5.38-1.46-1.09-2.91-2.24-4.33-3.4-.79-.82-1.65-1.78-2.67-2.87-3.46-3.76-3.63-6,.63-9.34,8.94-7.06,8.78-7.32,16.27,1.52C595.67,563.29,597.26,564.47,597.65,566.52Z"></path><path class="cls-4" d="M535.72,484.85a8.83,8.83,0,0,1-6.11,1.22L525,474a7.15,7.15,0,0,1,1.16,1.09C529.05,478.25,532.19,481.29,535.72,484.85Z"></path><path class="cls-4" d="M570.53,542.4c-.07,4.52-2.34,4.45-5.84,4.39-4.59-.1-4.85-2.51-4.22-6-.57-4.62,2.4-4.29,5.74-4.26C570.76,536.52,570.6,539,570.53,542.4Z"></path><path class="cls-4" d="M615.84,579.22c-3.67,2.12-6.08,1.16-8.32,1-7.59-.46-9.17-.62-9.9,4.26-2.67-1.48-5.25-3.1-7.79-4.82,4.16-3.53,8.35-7,12.41-10.69,1.81-1.65,2.67-.92,4,.5C609.17,572.62,612.3,575.66,615.84,579.22Z"></path><path class="cls-4" d="M535.09,451.13c-.3,3.83-1.45,5.21-5.54,4.85-3.93-.36-5.15-1.62-4.75-5.58.36-3.76,1.22-5.9,5.44-4.58C534.4,445.25,535.42,447.23,535.09,451.13Z"></path><path class="cls-4" d="M537.17,462.81c-3.76,2.77-7.59,5.41-11.22,8.31a2.45,2.45,0,0,1-1.81.73l-9.8-25.47c1.58-1.69,3.2-3.3,4.78-4.95l2,1.58c-.3,3.7-.33,7.42-.92,11.05-.73,4.1.29,6,4.78,5.88,3.66-.1,7.36.53,11,.82C536.38,461.42,536.81,462.12,537.17,462.81Z"></path><path class="cls-4" d="M611.45,590a8.83,8.83,0,0,1,.06,1.32q-4.95-2-9.76-4.52c.72-2.12,2.4-2.48,5.34-2.28C611.18,584.77,612.63,586.25,611.45,590Z"></path><path class="cls-3" d="M691.52,561.29l-3.76-9.78c-.12,1.29-.28,2.6-.49,3.89C686.61,559.31,687.53,561.22,691.52,561.29Z"></path><path class="cls-3" d="M590.63,522.27a3.27,3.27,0,0,1-2.31-.26A2.94,2.94,0,0,1,590.63,522.27Z"></path><path class="cls-3" d="M636.49,482.71a3.57,3.57,0,0,1,0-1.75A3.35,3.35,0,0,1,636.49,482.71Z"></path><path class="cls-3" d="M588.08,373.06q-1.22,2.44-2.51,4.83C587.24,377.38,587.75,376.06,588.08,373.06Z"></path><path class="cls-3" d="M598.05,435.55a3.34,3.34,0,0,1-3.5,0A3.22,3.22,0,0,1,598.05,435.55Z"></path></svg></svg></g></g></svg>